<svg xmlns="http://www.w3.org/2000/svg" xmlns:xlink="http://www.w3.org/1999/xlink" width="256" zoomAndPan="magnify" viewBox="0 0 192 191.999996" height="256" preserveAspectRatio="xMidYMid meet" version="1.0"><defs><clipPath id="4b9906fc96"><path d="M 91.503906 54.453125 L 171.753906 54.453125 L 171.753906 137.703125 L 91.503906 137.703125 Z M 91.503906 54.453125 " clip-rule="nonzero"/></clipPath><clipPath id="520a108ecf"><path d="M 19.199219 54.453125 L 87.449219 54.453125 L 87.449219 137.703125 L 19.199219 137.703125 Z M 19.199219 54.453125 " clip-rule="nonzero"/></clipPath></defs><g clip-path="url(#4b9906fc96)"><path fill="#ffffff" d="M 179.828125 54.453125 L 153.78125 87.933594 L 132.40625 115.429688 L 110.542969 87.742188 L 110.542969 137.539062 L 91.546875 137.539062 L 91.546875 54.453125 L 109.09375 54.453125 L 132.269531 85.171875 L 153.753906 56.285156 L 155.121094 54.453125 Z M 225.085938 78.75 C 223.011719 73.667969 220.113281 69.238281 216.476562 65.632812 C 212.84375 62.023438 208.6875 59.238281 204.070312 57.324219 C 200.378906 55.820312 196.527344 54.890625 192.5625 54.589844 L 178.269531 72.957031 L 189.285156 72.957031 C 193.382812 72.957031 196.773438 73.914062 199.695312 75.910156 C 202.730469 77.957031 205.027344 80.664062 206.695312 84.136719 C 208.386719 87.6875 209.261719 91.679688 209.261719 95.996094 C 209.261719 100.34375 208.414062 104.195312 206.695312 107.777344 C 205 111.246094 202.730469 113.953125 199.667969 116.058594 C 196.773438 118.078125 193.382812 119.035156 189.285156 119.035156 L 172.667969 119.035156 L 172.667969 80.171875 L 153.726562 104.523438 L 153.726562 137.539062 L 189.585938 137.539062 C 194.558594 137.539062 199.421875 136.582031 204.042969 134.671875 C 208.632812 132.757812 212.816406 129.96875 216.449219 126.335938 C 220.085938 122.699219 222.957031 118.296875 225.058594 113.214844 C 227.136719 108.132812 228.203125 102.335938 228.203125 95.96875 C 228.230469 89.65625 227.164062 83.863281 225.085938 78.75 Z M 225.085938 78.75 " fill-opacity="1" fill-rule="nonzero"/></g><g clip-path="url(#520a108ecf)"><path fill="#ffffff" d="M 85.316406 137.539062 L 72.097656 137.539062 C 71.050781 137.539062 70.207031 136.695312 70.207031 135.652344 L 70.207031 101.660156 L 36.21875 101.660156 L 36.21875 135.652344 C 36.21875 136.695312 35.375 137.539062 34.332031 137.539062 L 21.113281 137.539062 C 20.066406 137.539062 19.222656 136.695312 19.222656 135.652344 L 19.222656 56.34375 C 19.222656 55.300781 20.066406 54.453125 21.113281 54.453125 L 34.332031 54.453125 C 35.375 54.453125 36.21875 55.300781 36.21875 56.34375 L 36.21875 86.554688 L 70.207031 86.554688 L 70.207031 56.34375 C 70.207031 55.300781 71.050781 54.453125 72.097656 54.453125 L 85.316406 54.453125 C 86.359375 54.453125 87.203125 55.300781 87.203125 56.34375 L 87.203125 135.652344 C 87.203125 136.695312 86.359375 137.539062 85.316406 137.539062 Z M 85.316406 137.539062 " fill-opacity="1" fill-rule="nonzero"/></g></svg>